<svg xmlns="http://www.w3.org/2000/svg" width="523.1" height="331.223" viewBox="0 0 523.1 331.223">
  <g id="Group_490" data-name="Group 490" transform="translate(-497.848 -1033.521)">
    <g id="Group_483" data-name="Group 483" transform="translate(497.848 1106.591)">
      <g id="Group_474" data-name="Group 474" transform="translate(0 11.565)">
        <path id="Path_907" data-name="Path 907" d="M577.479,1148.125l-41.517,4.363-38.114,108.725,82.941-8.718,21.648-61.752ZM547.8,1219.336l6.987-19.932,5.836,9.969-3.136,8.944Z" transform="translate(-497.848 -1116.802)" fill="#231815"/>
        <path id="Path_908" data-name="Path 908" d="M859.168,1155.195l13.331-38.027-82.94,8.718-38.114,108.724,82.94-8.717,13.331-38.027-46.314,4.868.307-.874,46.314-4.868,10.84-30.922-46.314,4.868.307-.874Z" transform="translate(-494.854 -1117.168)" fill="#231815"/>
        <path id="Path_909" data-name="Path 909" d="M754.586,1217.345l1.788-.188,15.5-44.222-24.957-42.618L705.4,1134.68,667.287,1243.4l36.626-3.85,3.5-9.98,6.114,8.971,51.8-5.444Zm-29.078-33.57-2.119.223.842-2.4Z" transform="translate(-495.848 -1117.012)" fill="#231815"/>
        <path id="Path_910" data-name="Path 910" d="M685.632,1136.8l-46.728,4.911-66.174,111.673,37.917-3.985,10.67-18.005,17.962-1.888-1.62,17.054,37.916-3.985Z" transform="translate(-496.964 -1116.936)" fill="#231815"/>
      </g>
      <g id="Group_475" data-name="Group 475" transform="translate(0 103.599)">
        <path id="Path_911" data-name="Path 911" d="M577.479,1249.111l-41.517,4.363L497.848,1362.2l82.941-8.718,21.648-61.751ZM547.8,1320.322l6.987-19.932,5.836,9.968-3.136,8.944Z" transform="translate(-497.848 -1207.644)" fill="#231815"/>
        <path id="Path_912" data-name="Path 912" d="M770.766,1265.472l13.331-38.027-82.939,8.717-38.114,108.724,82.939-8.717,13.331-38.027L713,1303.01l.306-.874,46.312-4.868,10.84-30.921-46.312,4.868.306-.874Z" transform="translate(-495.898 -1207.9)" fill="#231815"/>
        <path id="Path_913" data-name="Path 913" d="M666.183,1327.622l1.789-.188,15.5-44.222-24.956-42.618L617,1244.957l-38.115,108.724,36.626-3.849,3.5-9.981,6.114,8.971,51.8-5.443Zm-29.077-33.57-2.119.223.843-2.4Z" transform="translate(-496.891 -1207.745)" fill="#231815"/>
        <path id="Path_914" data-name="Path 914" d="M1005.856,1308.873l-15.047-24.8,8.541-24.365-31.3-51.582-41.408,4.352-5.7,16.271L912,1214.02l-41.408,4.352L832.479,1327.1l36.627-3.85,20.45-58.337,11.858,19.543L888.53,1321.2l36.627-3.849,20.451-58.337,11.858,19.543-12.884,36.752Z" transform="translate(-493.897 -1208.128)" fill="#231815"/>
        <path id="Path_915" data-name="Path 915" d="M850.825,1220.422l-46.728,4.911-66.174,111.673,37.917-3.985,10.67-18.005,17.962-1.888-1.62,17.054,37.916-3.985Z" transform="translate(-495.013 -1207.983)" fill="#231815"/>
      </g>
      <g id="Group_476" data-name="Group 476" transform="translate(375.784)">
        <path id="Path_916" data-name="Path 916" d="M896.5,1114.6l-13.331,38.027,10.858-1.141-24.784,70.7,36.626-3.849,24.784-70.7,10.856-1.141,13.331-38.027Z" transform="translate(-869.247 -1105.706)" fill="#231815"/>
        <path id="Path_917" data-name="Path 917" d="M980.594,1105.738l-27.242,2.863-38.114,108.724,82.941-8.717,17.841-50.894Zm-15.4,69.71,11.453-32.669,9.689-1.019-11.453,32.67Z" transform="translate(-868.704 -1105.738)" fill="#231815"/>
      </g>
      <g id="Group_477" data-name="Group 477" transform="translate(7.013 17.443)">
        <path id="Path_918" data-name="Path 918" d="M577.437,1247.633l-72.658,7.636,34.371-98.048,34.114-3.586,23.223,39.658Zm-36.726-22.484,19.97-2.1,5.735-16.358-12.032-20.547Z" transform="translate(-504.779 -1122.615)" fill="#eae4d0"/>
        <path id="Path_919" data-name="Path 919" d="M855.816,1150.329l9.588-27.352-72.658,7.636-34.372,98.049,72.658-7.637,9.589-27.352-46.314,4.868,4.049-11.55,46.313-4.868,7.1-20.245-46.314,4.868,4.049-11.55Z" transform="translate(-501.785 -1122.977)" fill="#eae4d0"/>
        <path id="Path_920" data-name="Path 920" d="M743.963,1213.246l9.059-.952,12.9-36.811L742.7,1135.826l-34.114,3.586-34.372,98.049,26.344-2.769,6.146-17.53,10.738,15.755L754.7,1229Zm-20.14-44.91,11.409,19.483-18.937,1.99Z" transform="translate(-502.778 -1122.826)" fill="#eae4d0"/>
        <path id="Path_921" data-name="Path 921" d="M643.376,1240.739l27.272-2.866,9.068-95.389-38.837,4.083L581.2,1247.274l27.271-2.866,10.671-18.005L645,1223.685Zm-7.583-42.43,13.836-23.351-2.1,22.117Z" transform="translate(-503.877 -1122.747)" fill="#eae4d0"/>
      </g>
      <g id="Group_478" data-name="Group 478" transform="translate(12.692 22.203)">
        <path id="Path_922" data-name="Path 922" d="M510.392,1250.456l31.341-89.4,28.116-2.956,21.819,37.26-16.945,48.337Zm24.573-20.6,28.3-2.974,7.839-22.361-17.049-29.116Z" transform="translate(-510.392 -1127.323)" fill="#fff"/>
        <path id="Path_923" data-name="Path 923" d="M763.988,1223.846l31.341-89.4,64.33-6.761-6.558,18.706-46.314,4.868-7.08,20.2,46.314-4.868-4.067,11.6-46.314,4.868-7.08,20.2,46.314-4.868-6.557,18.706Z" transform="translate(-507.398 -1127.682)" fill="#fff"/>
        <path id="Path_924" data-name="Path 924" d="M720.619,1228.36l-14.484-21.25-8.288,23.644-18.016,1.893,31.341-89.4,28.116-2.955,21.819,37.26-10.8,30.807-14.947,1.57,10.738,15.756Zm-10.07-33.842,32.559-3.422-19.616-33.5Z" transform="translate(-508.391 -1127.534)" fill="#fff"/>
        <path id="Path_925" data-name="Path 925" d="M648.005,1236.026l1.62-17.054-32.241,3.389-10.671,18.005-18.65,1.96,54.413-91.828,32.448-3.41-8.268,86.978Zm-19.236-32.879,22.587-2.374L655.4,1158.2Z" transform="translate(-509.475 -1127.453)" fill="#fff"/>
      </g>
      <g id="Group_479" data-name="Group 479" transform="translate(7.013 109.172)">
        <path id="Path_926" data-name="Path 926" d="M577.437,1348.619l-72.658,7.636,34.371-98.048,34.114-3.586,23.223,39.658Zm-36.726-22.484,19.97-2.1,5.735-16.358-12.032-20.547Z" transform="translate(-504.779 -1213.152)" fill="#eae4d0"/>
        <path id="Path_927" data-name="Path 927" d="M767.414,1260.607,777,1233.255l-72.657,7.636-34.372,98.049,72.657-7.636,9.588-27.352-46.313,4.868,4.049-11.55,46.313-4.868,7.1-20.245-46.313,4.868,4.049-11.55Z" transform="translate(-502.829 -1213.404)" fill="#eae4d0"/>
        <path id="Path_928" data-name="Path 928" d="M655.56,1323.523l9.06-.952,12.9-36.809L654.3,1246.1l-34.114,3.586-34.372,98.048,26.344-2.769,6.145-17.529,10.738,15.756,37.257-3.916Zm-20.139-44.91L646.83,1298.1l-18.937,1.991Z" transform="translate(-503.822 -1213.252)" fill="#eae4d0"/>
        <path id="Path_929" data-name="Path 929" d="M984.848,1286.657l8.542-24.365-29.523-48.656-34.034,3.577-8.576,24.465-13.441-22.151-34.034,3.577-34.372,98.049,26.344-2.769,23.323-66.531,18.135,29.888-11.751,33.52,26.344-2.769,15.533-44.31,7.79-22.221,18.135,29.888-11.751,33.521,26.344-2.769,17.949-1.886Z" transform="translate(-500.828 -1213.636)" fill="#eae4d0"/>
        <path id="Path_930" data-name="Path 930" d="M808.569,1324.363l27.272-2.866,9.068-95.389-38.837,4.082L746.4,1330.9l27.271-2.866,10.671-18.005,25.852-2.717Zm-7.585-42.431,13.838-23.35-2.1,22.117Z" transform="translate(-501.926 -1213.489)" fill="#eae4d0"/>
      </g>
      <g id="Group_480" data-name="Group 480" transform="translate(12.691 113.685)">
        <path id="Path_931" data-name="Path 931" d="M510.391,1351.442l31.342-89.4,28.116-2.955,21.819,37.26-16.945,48.337Zm24.575-20.6,28.3-2.974,7.839-22.361-17.049-29.116Z" transform="translate(-510.391 -1217.612)" fill="#fff"/>
        <path id="Path_932" data-name="Path 932" d="M675.586,1334.124l31.341-89.4,64.329-6.761-6.557,18.706-46.313,4.868-7.08,20.2,46.313-4.868-4.066,11.6-46.313,4.868-7.08,20.2,46.313-4.868-6.557,18.706Z" transform="translate(-508.441 -1217.862)" fill="#fff"/>
        <path id="Path_933" data-name="Path 933" d="M632.217,1338.638l-14.484-21.25-8.289,23.643-18.016,1.894,31.341-89.4,28.117-2.955,21.819,37.26-10.8,30.807-14.947,1.571,10.738,15.755Zm-10.07-33.842,32.56-3.422-19.617-33.5Z" transform="translate(-509.434 -1217.713)" fill="#fff"/>
        <path id="Path_934" data-name="Path 934" d="M957.125,1304.557l10.833-30.9-23.219-38.267-25.649,73.167-18.016,1.894,10.833-30.9-23.219-38.267-25.649,73.167-18.016,1.894,31.341-89.4,28.062-2.949,17.087,28.159,10.9-31.1,28.062-2.949,28.085,46.285-8.542,24.365,7.645,12.6Z" transform="translate(-506.44 -1218.096)" fill="#fff"/>
        <path id="Path_935" data-name="Path 935" d="M813.2,1319.649l1.62-17.054-32.241,3.389-10.67,18.006-18.651,1.96,54.414-91.828,32.448-3.411-8.268,86.978Zm-19.237-32.878,22.588-2.375,4.046-42.573Z" transform="translate(-507.524 -1217.947)" fill="#fff"/>
      </g>
      <g id="Group_481" data-name="Group 481" transform="translate(382.796 5.562)">
        <path id="Path_936" data-name="Path 936" d="M947.749,1114.279l-48.057,5.051-9.588,27.352,10.857-1.141-24.784,70.7,26.344-2.769,24.783-70.7,10.856-1.141Z" transform="translate(-876.177 -1111.199)" fill="#eae4d0"/>
        <path id="Path_937" data-name="Path 937" d="M993.267,1135.818l-15.2,43.345-19.971,2.1,15.2-43.345,19.971-2.1-16.756-24.583-19.971,2.1-34.372,98.049,72.659-7.637,15.2-43.345Z" transform="translate(-875.634 -1111.235)" fill="#eae4d0"/>
      </g>
      <g id="Group_482" data-name="Group 482" transform="translate(388.475 10.066)">
        <path id="Path_938" data-name="Path 938" d="M881.79,1211.422l24.784-70.7-10.857,1.141,6.557-18.706L942,1118.984l-6.557,18.706-10.856,1.141-24.784,70.7Z" transform="translate(-881.79 -1115.647)" fill="#fff"/>
        <path id="Path_939" data-name="Path 939" d="M927.782,1206.569l31.341-89.4,14.083-1.48,11.459,16.812-14.083,1.48-18.226,51.991,28.3-2.974,13.052-37.231,11.459,16.812-13.052,37.231Z" transform="translate(-881.247 -1115.686)" fill="#fff"/>
      </g>
    </g>
    <g id="Group_489" data-name="Group 489" transform="translate(537.491 1033.521)">
      <path id="Path_940" data-name="Path 940" d="M985.848,1041.888l2.648-7.551-15.325,1.611-2.647,7.551-12.65,1.33-1.91,5.449-11.421-16.756L939,1049.344l-.623,1.779-2.794-4.1-17.414,1.83-5.283.554-7.428.781,2.647-7.551-15.325,1.611-.054.153-27.385,2.879-5.438,7.652-1.892.2,2.577-7.352-15.325,1.611-2.577,7.352-4.4.462,1.839-5.248-14.03,1.474.738-2.1-30.521,3.208-.738,2.1-14.03,1.474-4.907,14,.3,7.478-5.768,8.118-6.372,18.176,10.387-1.092-1.94,5.533,37.805-3.973,1.941-5.533,5.259-.553-4.093,5.76,15.8-1.661.731-.076,38.773-4.076,9.715-1.021,16.878-1.775,5.282-.554,21.807-2.293,5.3-.557,12.658-1.331,4.086-.429,36.537-3.841,16.776-47.854Zm-63.219,21.821,1.739-.182-5.674,16.187-1.738.183Zm11.85,13.081.8,1.181-1.266.133Zm-105.03-2.719.469-.662,1.272-.134-1.679,2.363Zm42.312,9.209,7.614-.8-.5,1.419-3.84.4-1.2,3.429Z" transform="translate(-534.339 -1033.521)" fill="#231815"/>
      <path id="Path_941" data-name="Path 941" d="M761.129,1065.511l2.647-7.551-15.324,1.61-2.647,7.551-12.65,1.33-1.91,5.45-11.421-16.755-5.547,15.822-.623,1.78-2.795-4.1-17.414,1.83-5.282.556-7.429.781,2.648-7.551-15.325,1.61-2.647,7.551-.355.037,4.644-13.247-13.373,11.21,1.016-2.9-14.246,1.5,2.554-7.281-23.275,19.509-10.727-15.737-4.624,13.194-9.966,1.047-1.972,5.625-6.3.663,4.617-13.176-36.951,3.883-6.512,18.578-3.686,10.51h0l-9.226,26.318,53.22-5.593,7.28-.765,14.763-1.552,1.27-3.621,25.243-2.653-1.27,3.621,7.207-.758,5.359-.563,21.235-2.232,5.281-.555,21.808-2.292,5.3-.557,12.657-1.331,4.087-.43,36.537-3.84,16.776-47.854Zm-51.369,34.9.8,1.181-1.265.133Zm-15.731,2.771-1.739.183,5.621-16.034,1.738-.183Zm-94,6.313,2.364,3.467-5.217.548Z" transform="translate(-537.028 -1033.242)" fill="#231815"/>
      <g id="Group_484" data-name="Group 484" transform="translate(235.892 5.369)">
        <path id="Path_942" data-name="Path 942" d="M865.516,1050.954l-11.089,15.606.654,14.2,22.22-2.335,10.449-29.807Zm12.2,6.077-.836,2.382-10.837,1.139,1.761-2.479Zm-15.336,8.673.837-1.176,12.325-1.3-.8,2.282-12.31,1.294Zm.318,6.9-.1-2.131,10.8-1.135-.779,2.223Z" transform="translate(-769.172 -1038.711)" fill="#eae4d0"/>
        <path id="Path_943" data-name="Path 943" d="M834.791,1082.885l3.461-4.87-1.64,4.679,7.359-.774,1.64-4.678.18,4.487,7.937-.834-.572-14.208,5.652-7.953-6.965.732,2.578-7.352-7.359.774-2.578,7.352-7.5.788-2.678,7.64,3.509-.369-10.958,15.42Z" transform="translate(-769.498 -1038.67)" fill="#eae4d0"/>
        <path id="Path_944" data-name="Path 944" d="M820.85,1100.673l7.937-.834,11.291-15.888-7.937.834Z" transform="translate(-769.569 -1038.294)" fill="#eae4d0"/>
        <path id="Path_945" data-name="Path 945" d="M857,1082.187l3.261,7-1.785.188-3.261-7-7.937.834,3.261,7-5.933.624,2.672-7.623-7.359.773-5.351,15.263,19.238-2.022,7.936-.834,1.785-.188,7.937-.834-6.529-14.015Z" transform="translate(-769.407 -1038.325)" fill="#eae4d0"/>
        <path id="Path_946" data-name="Path 946" d="M978.294,1046.379l2.648-7.552-7.359.774-2.647,7.551-12.65,1.329-13.877,39.585,32.657-3.433,13.877-39.584Zm2.612,7.084-2.92,8.332-5.292.556,2.921-8.331Zm-12.65,1.329-2.92,8.332-5.291.556,2.921-8.331Zm-10.889,16.528,5.291-.556-2.921,8.331-5.291.557Zm9.729,7,2.92-8.332,5.291-.555-2.92,8.331Z" transform="translate(-768.11 -1038.827)" fill="#eae4d0"/>
        <path id="Path_947" data-name="Path 947" d="M951.92,1056.11l-8.953-13.136-3.788,10.8,8.953,13.136Z" transform="translate(-768.172 -1038.778)" fill="#eae4d0"/>
        <path id="Path_948" data-name="Path 948" d="M937.568,1058.612l-3.788,10.8,4.273,6.269-1.994,5.688-6.718.706-2.678,7.64,14.077-1.479,5.782-16.493Z" transform="translate(-768.319 -1038.594)" fill="#eae4d0"/>
        <path id="Path_949" data-name="Path 949" d="M831.895,1063.89l2.679-7.64-14.03,1.474.737-2.1-7.358.773-.738,2.1-7.837.824.737-2.1-7.359.774-.737,2.1-14.03,1.474-2.678,7.64,14.03-1.474-.5,1.419-14.03,1.475.332,8.249-6.362,8.952,50.614-5.319-.331-8.25,6.362-8.953-14.03,1.474.5-1.418Zm-42.879,13.232,3.119-.329-.674,1.922-3.12.328.711-1Zm10.478-1.1,7.837-.823-.674,1.921-7.837.824Zm18.316-1.924-.711,1,.037.922-3.119.328.674-1.922Zm-7.8-6.539-7.837.824.5-1.418,7.837-.825Z" transform="translate(-770.113 -1038.629)" fill="#eae4d0"/>
        <path id="Path_950" data-name="Path 950" d="M807.178,1085.464l-32.867,3.454-4.143,11.82,7.359-.774,1.465-4.179,9.085-.955-.727,2.072-6.058.637-2.678,7.64,29.84-3.137,3.4-9.712,3.028-.319-1.465,4.18,7.359-.774,4.143-11.819-10.387,1.092Zm-3.4,9.712-9.065.953.727-2.072,9.064-.953Z" transform="translate(-770.167 -1038.299)" fill="#eae4d0"/>
        <path id="Path_951" data-name="Path 951" d="M930.884,1051.124l-17.063,1.794-13.931,39.738,24.422-2.567,11.252-32.1Zm-11.251,32.1-9.705,1.02,8.574-24.457,9.7-1.02Z" transform="translate(-768.635 -1038.682)" fill="#eae4d0"/>
        <path id="Path_952" data-name="Path 952" d="M898.737,1054.584l2.647-7.551-7.359.773-2.647,7.551-3.439.361-2.678,7.64L888.7,1063l-8.574,24.457-3.84.4-2.679,7.64,11.2-1.177,11.253-32.1,5.351-.562-11.252,32.1,7.359-.774,13.931-39.738Z" transform="translate(-768.946 -1038.73)" fill="#eae4d0"/>
      </g>
      <g id="Group_485" data-name="Group 485" transform="translate(5.432 29.271)">
        <path id="Path_953" data-name="Path 953" d="M542.4,1130.074l50.614-5.32-.441-10.975,8.464-11.911-50.614,5.32Zm12.7-16.019,32.346-3.4-2.813,3.958.147,3.647-32.345,3.4Z" transform="translate(-542.397 -1061.985)" fill="#eae4d0"/>
        <path id="Path_954" data-name="Path 954" d="M599.421,1086.138l-1.972,5.625-43.255,4.547-2.679,7.64,50.614-5.32,4.651-13.266Z" transform="translate(-542.289 -1062.179)" fill="#eae4d0"/>
        <path id="Path_955" data-name="Path 955" d="M563.452,1090.062l21.628-2.273,2.678-7.64-28.986,3.047-3.736,10.657,7.359-.773Z" transform="translate(-542.248 -1062.241)" fill="#eae4d0"/>
        <path id="Path_956" data-name="Path 956" d="M620.254,1090.97l-8.953-13.136-3.788,10.8,8.953,13.136Z" transform="translate(-541.628 -1062.268)" fill="#eae4d0"/>
        <path id="Path_957" data-name="Path 957" d="M605.9,1093.471l-3.788,10.8,4.273,6.269-1.994,5.688-6.718.706-2.679,7.64,14.077-1.479,5.782-16.493Z" transform="translate(-541.776 -1062.084)" fill="#eae4d0"/>
        <path id="Path_958" data-name="Path 958" d="M650.722,1074.87l-11.287,1.187-1.674,4.775,11.287-1.186Z" transform="translate(-541.271 -1062.303)" fill="#eae4d0"/>
        <path id="Path_959" data-name="Path 959" d="M646.957,1085.609l1.674-4.775-11.287,1.186-1.674,4.775Z" transform="translate(-541.296 -1062.233)" fill="#eae4d0"/>
        <path id="Path_960" data-name="Path 960" d="M633.579,1092.76l11.287-1.186,1.674-4.775-11.287,1.186Z" transform="translate(-541.32 -1062.162)" fill="#eae4d0"/>
        <path id="Path_961" data-name="Path 961" d="M658.949,1079.189l2.368-6.753-13.036,10.929-1.494,4.262,4.281-.45-4.691,3.932-1.307,3.73-1.471,4.2-1.088.114,2.154-6.146-11.287,1.187-2.154,6.145-1.088.114,1.47-4.195,1.674-4.776-3.078.324,4.2-3.518,1.44-4.107-4.432.466,3.491-2.927,2.368-6.753-13.037,10.929-1.494,4.262,4.282-.449-4.691,3.932-.049.138-2.826,8.061-1.578,4.5,30.041-3.158-.618,1.762-30.04,3.157-3.959,11.294,30.039-3.157-1.27,3.621,4.6-.483,2.943-8.4-30.04,3.157.611-1.743,30.041-3.158,3.718-10.609h0l2.826-8.061h0l.566-1.613-3.077.323,4.2-3.518,1.44-4.106-4.433.466Zm-33.413,21.744-1.389.146,1.47-4.195,1.39-.147Zm12.375-1.3-2.089.22.481-1.37,2.088-.22Zm11.757-5.277,1.389-.146-1.471,4.2-1.389.146Z" transform="translate(-541.56 -1062.332)" fill="#eae4d0"/>
        <path id="Path_962" data-name="Path 962" d="M753.54,1070l2.647-7.551-7.359.773-2.647,7.552-12.649,1.329-13.877,39.584,32.657-3.432,13.877-39.585Zm2.612,7.085-2.921,8.331-5.291.557,2.921-8.332Zm-12.65,1.329-2.921,8.331-5.291.556,2.921-8.332Zm-10.89,16.528,5.291-.556-2.921,8.332-5.29.557Zm9.729,7,2.921-8.332,5.291-.557-2.921,8.332Z" transform="translate(-540.304 -1062.45)" fill="#eae4d0"/>
        <path id="Path_963" data-name="Path 963" d="M727.166,1079.733l-8.953-13.136-3.788,10.8,8.953,13.136Z" transform="translate(-540.366 -1062.401)" fill="#eae4d0"/>
        <path id="Path_964" data-name="Path 964" d="M712.814,1082.234l-3.788,10.8,4.273,6.269L711.305,1105l-6.718.706-2.678,7.64,14.077-1.479,5.782-16.493Z" transform="translate(-540.514 -1062.216)" fill="#eae4d0"/>
        <path id="Path_965" data-name="Path 965" d="M706.13,1074.747l-17.063,1.793-13.931,39.738,24.422-2.567,11.251-32.1Zm-11.2,31.944-9.7,1.02,8.519-24.3,9.705-1.02Z" transform="translate(-540.83 -1062.305)" fill="#eae4d0"/>
        <path id="Path_966" data-name="Path 966" d="M673.983,1078.207l2.647-7.551-7.359.774-2.647,7.551-3.439.362-2.678,7.64,3.439-.361-8.574,24.457-3.84.4-2.679,7.64,11.2-1.177,11.252-32.1,5.351-.562-11.252,32.1,7.359-.774,13.931-39.738Z" transform="translate(-541.14 -1062.353)" fill="#eae4d0"/>
      </g>
      <g id="Group_487" data-name="Group 487" transform="translate(7.999 31.422)">
        <path id="Path_967" data-name="Path 967" d="M544.934,1127.9l6.653-18.979,45.943-4.828-7.02,9.877.365,9.1Zm4.9-4.111,37.016-3.891-.221-5.52,4.257-5.992-37.016,3.89Z" transform="translate(-544.934 -1064.109)" fill="#fff"/>
        <path id="Path_968" data-name="Path 968" d="M554.052,1101.773l1.309-3.733,43.255-4.546,1.972-5.625,3.6-.378-3.281,9.359Z" transform="translate(-544.826 -1064.306)" fill="#fff"/>
        <path id="Path_969" data-name="Path 969" d="M557.572,1091.676l2.366-6.75,25.223-2.651-1.309,3.733-21.628,2.273-1.058,3.017Z" transform="translate(-544.785 -1064.367)" fill="#fff"/>
        <path id="Path_970" data-name="Path 970" d="M609.654,1087.579l1.85-5.279,6.559,9.624-1.85,5.278Z" transform="translate(-544.17 -1064.367)" fill="#fff"/>
        <path id="Path_971" data-name="Path 971" d="M597.533,1122.375l1.309-3.733,6.717-.706,2.964-8.451-4.274-6.268,1.851-5.279,6.559,9.624-4.813,13.73Z" transform="translate(-544.313 -1064.182)" fill="#fff"/>
        <path id="Path_972" data-name="Path 972" d="M722.192,1109.512l12.508-35.677,12.65-1.33,2.647-7.551,3.594-.378-2.647,7.551,12.65-1.329-12.507,35.678Zm17.553-5.441,9.055-.952,4.29-12.239-9.054.952ZM727.1,1105.4l9.055-.952,4.289-12.239-9.053.952Zm18.248-17.3,9.055-.951,4.29-12.239-9.054.951Zm-12.65,1.33,9.054-.951,4.292-12.24-9.054.952Z" transform="translate(-542.841 -1064.576)" fill="#fff"/>
        <path id="Path_973" data-name="Path 973" d="M716.565,1076.341l1.851-5.278,6.559,9.624-1.851,5.279Z" transform="translate(-542.908 -1064.5)" fill="#fff"/>
        <path id="Path_974" data-name="Path 974" d="M704.446,1111.138l1.309-3.733,6.718-.706,2.963-8.451-4.273-6.268,1.851-5.279,6.559,9.624-4.813,13.73Z" transform="translate(-543.051 -1064.315)" fill="#fff"/>
        <path id="Path_975" data-name="Path 975" d="M677.673,1114.1l12.561-35.831,14.4-1.514,3.979,5.839-10.284,29.334Zm4.9-4.111,13.469-1.416,9.943-28.365-13.469,1.417Z" transform="translate(-543.367 -1064.432)" fill="#fff"/>
        <path id="Path_976" data-name="Path 976" d="M651.39,1116.945l1.309-3.733,3.84-.4,9.943-28.365-3.439.361,1.309-3.733,3.439-.362,2.647-7.551,3.595-.378-2.647,7.551L684.1,1079l-12.561,35.831-3.595.378,11.252-32.1-9.115.958-11.252,32.1Z" transform="translate(-543.677 -1064.479)" fill="#fff"/>
        <g id="Group_486" data-name="Group 486" transform="translate(70.743 10.742)">
          <path id="Path_977" data-name="Path 977" d="M649.13,1076.227l-9.017.948-.8,2.267,9.017-.947Z" transform="translate(-614.563 -1075.181)" fill="#fff"/>
          <path id="Path_978" data-name="Path 978" d="M647.038,1082.191l-9.017.948-.8,2.268,9.017-.948Z" transform="translate(-614.588 -1075.11)" fill="#fff"/>
          <path id="Path_979" data-name="Path 979" d="M644.948,1088.156l-9.017.947-.795,2.268,9.017-.948Z" transform="translate(-614.613 -1075.04)" fill="#fff"/>
          <path id="Path_980" data-name="Path 980" d="M658.3,1082.99l-5.941.624,5.55-4.652,1.321-3.769-9.94,8.333-.945,2.695,5.792-.608-6.75,5.658-.431,1.226-.088.075.066-.007-2.655,7.571-3.358.353,2.154-6.146-9.017.947-2.154,6.146-3.358.353,3.145-8.971-4.588.483,6.257-5.245.89-2.539-5.941.625,5.55-4.653,1.323-3.769-9.943,8.333-.944,2.694,5.792-.608-6.75,5.657-.43,1.227-.09.075.066-.006-3.45,9.838,30.041-3.157-1.5,4.27-30.041,3.157-3.08,8.787,30.041-3.157-1.27,3.621,2.328-.244,2.065-5.89-30.04,3.157,1.489-4.251,30.041-3.158,6.231-17.776-4.586.483,6.255-5.244Zm-29.734,12.342-2.349,6.7-3.661.385,2.349-6.7Zm11.385,1.524-1.36,3.878-4.359.457,1.359-3.877Zm10.316,2.651-3.661.385,2.349-6.7,3.661-.385Z" transform="translate(-614.852 -1075.193)" fill="#fff"/>
        </g>
      </g>
      <g id="Group_488" data-name="Group 488" transform="translate(238.459 7.521)">
        <path id="Path_981" data-name="Path 981" d="M866.078,1052.749l-9.641,13.567.568,12.332,19.077-2.005,9.079-25.9Zm1.116,3.479,13.063-1.373-2,5.715-15.286,1.607Zm-5,7.028,15.691-1.649-1.776,5.066-15.681,1.648-.112-2.422Zm-1.473,11.406-.247-5.347,15.271-1.6-1.955,5.577Z" transform="translate(-771.715 -1040.839)" fill="#fff"/>
        <path id="Path_982" data-name="Path 982" d="M839.137,1080.518l3.6-.378.955-2.724,3.883-1.113.134,3.315,3.878-.408-.5-12.335,4.207-5.919-6.057.637,2.577-7.353-3.6.378-2.577,7.352-7.5.788-1.309,3.733,4.417-.464-10.958,15.42,3.877-.408,2.558-3.6,3.37.351Z" transform="translate(-772.024 -1040.797)" fill="#fff"/>
        <path id="Path_983" data-name="Path 983" d="M824.284,1098.4l3.878-.408,8.4-11.82-3.878.407Z" transform="translate(-772.095 -1040.42)" fill="#fff"/>
        <path id="Path_984" data-name="Path 984" d="M860.22,1083.7l3.26,7-6.623.7-3.26-7-3.1.326,3.26,7-11.754,1.235,2.673-7.623-3.6.378L837.1,1097.07l31.075-3.266-4.857-10.427Z" transform="translate(-771.944 -1040.453)" fill="#fff"/>
        <path id="Path_985" data-name="Path 985" d="M975.7,1048.505l2.647-7.551-3.595.377-2.647,7.551-12.65,1.329-12.507,35.677,28.893-3.036,12.507-35.677Zm-13.958,5.062,9.055-.951-4.291,12.239-9.055.951Zm-9.89,28.211,4.291-12.239,9.054-.951-4.29,12.239Zm21.7-2.281-9.055.951,4.29-12.239,9.054-.952Zm-3.456-15.021,4.291-12.238,9.055-.953-4.29,12.24Z" transform="translate(-770.647 -1040.954)" fill="#fff"/>
        <path id="Path_986" data-name="Path 986" d="M949.729,1057.065l-6.559-9.625-1.851,5.279,6.559,9.624Z" transform="translate(-770.713 -1040.877)" fill="#fff"/>
        <path id="Path_987" data-name="Path 987" d="M935.916,1068.356l4.273,6.269-2.963,8.451-6.718.706-1.309,3.734,10.313-1.084,4.814-13.73-6.559-9.624Z" transform="translate(-770.856 -1040.693)" fill="#fff"/>
        <path id="Path_988" data-name="Path 988" d="M827.883,1067.529l-13.122,1.379,1.868-5.325,14.03-1.475,1.308-3.733-14.03,1.474.738-2.1-3.595.377-.737,2.1-11.6,1.22.737-2.1-3.594.377-.738,2.1-14.03,1.475-1.308,3.733,14.03-1.474-1.868,5.325-13.122,1.379.257,6.376-4.917,6.92,45.034-4.733-.257-6.376Zm-35.266,12.917-7.792.819,2.157-3.034-.111-2.8,7.79-.818Zm15.2-1.6-11.6,1.22,2.044-5.829,11.6-1.22Zm-8.25-8.342,1.867-5.325,11.6-1.22-1.867,5.326Zm19.636,7.146-7.792.818,2.044-5.829,7.791-.818-2.156,3.033Z" transform="translate(-772.639 -1040.756)" fill="#fff"/>
        <path id="Path_989" data-name="Path 989" d="M772.7,1098.562l3.595-.378,1.465-4.179,12.85-1.351-2.1,5.979-6.059.637L781.151,1103l26.076-2.741,3.4-9.713,6.792-.713-1.465,4.179,3.595-.377,2.773-7.912-46.85,4.925Zm21.5-6.286,12.829-1.348-2.1,5.979-12.828,1.35Z" transform="translate(-772.704 -1040.425)" fill="#fff"/>
        <path id="Path_990" data-name="Path 990" d="M929.391,1053.136l-14.4,1.514-12.561,35.83,20.658-2.17,10.284-29.335Zm-8.591,31.817-13.468,1.417L917.274,1058l13.468-1.416Z" transform="translate(-771.172 -1040.81)" fill="#fff"/>
        <path id="Path_991" data-name="Path 991" d="M896.141,1056.71l2.647-7.551-3.6.378-2.647,7.551-3.439.361-1.308,3.733,3.439-.362-9.944,28.364-3.841.4-1.308,3.733,7.435-.781,11.253-32.1,9.115-.958-11.252,32.1,3.595-.378,12.561-35.831Z" transform="translate(-771.483 -1040.857)" fill="#fff"/>
      </g>
    </g>
  </g>
</svg>
