<svg xmlns="http://www.w3.org/2000/svg" width="18.579" height="16.387" viewBox="0 0 18.579 16.387">
  <g id="Group_635" data-name="Group 635" transform="translate(721.553 -1416.672)">
    <g id="Group_632" data-name="Group 632" transform="translate(-721.553 1416.672)">
      <g id="Group_631" data-name="Group 631" transform="translate(0 0)">
        <path id="Path_1070" data-name="Path 1070" d="M-716.455,1435.876a1.1,1.1,0,0,1-.781-.323,1.1,1.1,0,0,1,0-1.562l5.785-5.785-5.654-5.654a1.1,1.1,0,0,1,0-1.562,1.1,1.1,0,0,1,1.562,0l6.434,6.434a1.106,1.106,0,0,1,.323.781,1.105,1.105,0,0,1-.323.781l-6.566,6.566A1.1,1.1,0,0,1-716.455,1435.876Z" transform="translate(718.148 -1420.079)" fill="#dc000c"/>
        <path id="Path_1071" data-name="Path 1071" d="M-719.86,1433.059a1.684,1.684,0,0,1-1.2-.5,1.7,1.7,0,0,1,0-2.4l5.368-5.368-5.237-5.237a1.7,1.7,0,0,1,0-2.4,1.7,1.7,0,0,1,2.4,0l6.435,6.435a1.683,1.683,0,0,1,.5,1.2,1.684,1.684,0,0,1-.5,1.2l-6.566,6.566A1.683,1.683,0,0,1-719.86,1433.059Zm.131-15.209a.513.513,0,0,0-.364.151.516.516,0,0,0,0,.729l6.07,6.07-6.2,6.2a.516.516,0,0,0,0,.729.529.529,0,0,0,.729,0l6.566-6.566a.513.513,0,0,0,.151-.365.513.513,0,0,0-.151-.365l-6.434-6.434A.514.514,0,0,0-719.729,1417.85Z" transform="translate(721.553 -1416.672)" fill="#dc000c"/>
      </g>
    </g>
    <g id="Group_634" data-name="Group 634" transform="translate(-712.926 1416.672)">
      <g id="Group_633" data-name="Group 633" transform="translate(0 0)">
        <path id="Path_1072" data-name="Path 1072" d="M-657.874,1435.876a1.1,1.1,0,0,1-.781-.323,1.1,1.1,0,0,1,0-1.562l5.785-5.785-5.653-5.654a1.1,1.1,0,0,1,0-1.562,1.1,1.1,0,0,1,1.562,0l6.435,6.434a1.105,1.105,0,0,1,.324.781,1.1,1.1,0,0,1-.324.781l-6.566,6.566A1.1,1.1,0,0,1-657.874,1435.876Z" transform="translate(659.567 -1420.079)" fill="#dc000c"/>
        <path id="Path_1073" data-name="Path 1073" d="M-661.28,1433.059a1.684,1.684,0,0,1-1.2-.5,1.7,1.7,0,0,1,0-2.4l5.369-5.368-5.237-5.237a1.7,1.7,0,0,1,0-2.4,1.7,1.7,0,0,1,2.395,0l6.435,6.435a1.683,1.683,0,0,1,.5,1.2,1.683,1.683,0,0,1-.5,1.2l-6.566,6.566A1.683,1.683,0,0,1-661.28,1433.059Zm.131-15.209a.513.513,0,0,0-.365.151.516.516,0,0,0,0,.729l6.07,6.07-6.2,6.2a.516.516,0,0,0,0,.729.529.529,0,0,0,.729,0l6.566-6.566a.512.512,0,0,0,.151-.365.513.513,0,0,0-.151-.365l-6.434-6.434A.514.514,0,0,0-661.149,1417.85Z" transform="translate(662.973 -1416.672)" fill="#dc000c"/>
      </g>
    </g>
  </g>
</svg>
