<svg xmlns="http://www.w3.org/2000/svg" width="14.579" height="12.859" viewBox="0 0 14.579 12.859">
  <g id="Group_668" data-name="Group 668" transform="translate(721.553 -1416.672)">
    <g id="Group_632" data-name="Group 632" transform="translate(-721.553 1416.672)">
      <g id="Group_631" data-name="Group 631" transform="translate(0 0)">
        <path id="Path_1070" data-name="Path 1070" d="M-716.693,1432.6a.864.864,0,0,1-.613-.254.867.867,0,0,1,0-1.226l4.54-4.539-4.436-4.436a.867.867,0,0,1,0-1.226.867.867,0,0,1,1.226,0l5.049,5.049a.867.867,0,0,1,.254.613.867.867,0,0,1-.254.613l-5.152,5.152A.864.864,0,0,1-716.693,1432.6Z" transform="translate(718.021 -1420.205)" fill="#dc000c"/>
        <path id="Path_1071" data-name="Path 1071" d="M-720.225,1429.531a1.321,1.321,0,0,1-.94-.389,1.331,1.331,0,0,1,0-1.88l4.213-4.213-4.11-4.109a1.331,1.331,0,0,1,0-1.88,1.331,1.331,0,0,1,1.879,0l5.049,5.049a1.321,1.321,0,0,1,.389.94,1.321,1.321,0,0,1-.389.94l-5.152,5.152A1.321,1.321,0,0,1-720.225,1429.531Zm.1-11.935a.4.4,0,0,0-.286.118.4.4,0,0,0,0,.572l4.763,4.763-4.866,4.866a.405.405,0,0,0,0,.572.415.415,0,0,0,.572,0l5.152-5.152a.4.4,0,0,0,.118-.286.4.4,0,0,0-.119-.286l-5.049-5.049A.4.4,0,0,0-720.122,1417.6Z" transform="translate(721.553 -1416.672)" fill="#dc000c"/>
      </g>
    </g>
    <g id="Group_634" data-name="Group 634" transform="translate(-714.784 1416.672)">
      <g id="Group_633" data-name="Group 633" transform="translate(0 0)">
        <path id="Path_1072" data-name="Path 1072" d="M-658.112,1432.6a.864.864,0,0,1-.613-.254.867.867,0,0,1,0-1.226l4.539-4.539-4.436-4.436a.867.867,0,0,1,0-1.226.867.867,0,0,1,1.226,0l5.049,5.049a.867.867,0,0,1,.254.613.867.867,0,0,1-.254.613l-5.152,5.152A.864.864,0,0,1-658.112,1432.6Z" transform="translate(659.44 -1420.205)" fill="#dc000c"/>
        <path id="Path_1073" data-name="Path 1073" d="M-661.645,1429.531a1.321,1.321,0,0,1-.94-.389,1.331,1.331,0,0,1,0-1.88l4.213-4.213-4.11-4.109a1.331,1.331,0,0,1,0-1.88,1.33,1.33,0,0,1,1.879,0l5.049,5.049a1.321,1.321,0,0,1,.389.94,1.321,1.321,0,0,1-.389.94l-5.152,5.152A1.32,1.32,0,0,1-661.645,1429.531Zm.1-11.935a.4.4,0,0,0-.286.118.4.4,0,0,0,0,.572l4.763,4.763-4.866,4.866a.405.405,0,0,0,0,.572.415.415,0,0,0,.572,0l5.152-5.152a.4.4,0,0,0,.118-.286.4.4,0,0,0-.119-.286l-5.049-5.049A.4.4,0,0,0-661.542,1417.6Z" transform="translate(662.973 -1416.672)" fill="#dc000c"/>
      </g>
    </g>
  </g>
</svg>
